<?xml version="1.0" encoding="UTF-8" standalone="no"?>
<!DOCTYPE svg PUBLIC "-//W3C//DTD SVG 1.1//EN"
 "http://www.w3.org/Graphics/SVG/1.1/DTD/svg11.dtd">
<!-- Generated by graphviz version 2.43.0 (0)
 -->
<!-- Title: VObject Pages: 1 -->
<svg width="358pt" height="84pt"
 viewBox="0.00 0.00 358.00 84.00" xmlns="http://www.w3.org/2000/svg" xmlns:xlink="http://www.w3.org/1999/xlink">
<g id="graph0" class="graph" transform="scale(1 1) rotate(0) translate(4 80)">
<title>VObject</title>
<polygon fill="white" stroke="transparent" points="-4,4 -4,-80 354,-80 354,4 -4,4"/>
<!-- Node1 -->
<g id="node1" class="node">
<title>Node1</title>
<g id="a_node1"><a xlink:title=" ">
<polygon fill="#bfbfbf" stroke="black" points="157,-56.5 157,-75.5 209,-75.5 209,-56.5 157,-56.5"/>
<text text-anchor="middle" x="183" y="-63.5" font-family="Helvetica,sans-Serif" font-size="10.00">VObject</text>
</a>
</g>
</g>
<!-- Node2 -->
<g id="node2" class="node">
<title>Node2</title>
<g id="a_node2"><a xlink:href="classVImage.html" target="_top" xlink:title=" ">
<polygon fill="white" stroke="black" points="0,-0.5 0,-19.5 50,-19.5 50,-0.5 0,-0.5"/>
<text text-anchor="middle" x="25" y="-7.5" font-family="Helvetica,sans-Serif" font-size="10.00">VImage</text>
</a>
</g>
</g>
<!-- Node1&#45;&gt;Node2 -->
<g id="edge1" class="edge">
<title>Node1&#45;&gt;Node2</title>
<path fill="none" stroke="midnightblue" d="M148.39,-53.17C118.64,-43 76.45,-28.59 49.92,-19.52"/>
<polygon fill="midnightblue" stroke="midnightblue" points="147.37,-56.52 157.96,-56.44 149.63,-49.9 147.37,-56.52"/>
</g>
<!-- Node3 -->
<g id="node3" class="node">
<title>Node3</title>
<g id="a_node3"><a xlink:href="classVInterpolate.html" target="_top" xlink:title=" ">
<polygon fill="white" stroke="black" points="68.5,-0.5 68.5,-19.5 137.5,-19.5 137.5,-0.5 68.5,-0.5"/>
<text text-anchor="middle" x="103" y="-7.5" font-family="Helvetica,sans-Serif" font-size="10.00">VInterpolate</text>
</a>
</g>
</g>
<!-- Node1&#45;&gt;Node3 -->
<g id="edge2" class="edge">
<title>Node1&#45;&gt;Node3</title>
<path fill="none" stroke="midnightblue" d="M161.7,-50.62C147.08,-40.76 128.17,-27.99 115.82,-19.65"/>
<polygon fill="midnightblue" stroke="midnightblue" points="159.9,-53.63 170.15,-56.32 163.82,-47.83 159.9,-53.63"/>
</g>
<!-- Node4 -->
<g id="node4" class="node">
<title>Node4</title>
<g id="a_node4"><a xlink:href="classVRegion.html" target="_top" xlink:title=" ">
<polygon fill="white" stroke="black" points="156,-0.5 156,-19.5 210,-19.5 210,-0.5 156,-0.5"/>
<text text-anchor="middle" x="183" y="-7.5" font-family="Helvetica,sans-Serif" font-size="10.00">VRegion</text>
</a>
</g>
</g>
<!-- Node1&#45;&gt;Node4 -->
<g id="edge3" class="edge">
<title>Node1&#45;&gt;Node4</title>
<path fill="none" stroke="midnightblue" d="M183,-45.8C183,-36.91 183,-26.78 183,-19.75"/>
<polygon fill="midnightblue" stroke="midnightblue" points="179.5,-46.08 183,-56.08 186.5,-46.08 179.5,-46.08"/>
</g>
<!-- Node5 -->
<g id="node5" class="node">
<title>Node5</title>
<g id="a_node5"><a xlink:href="classVSource.html" target="_top" xlink:title=" ">
<polygon fill="white" stroke="black" points="228,-0.5 228,-19.5 282,-19.5 282,-0.5 228,-0.5"/>
<text text-anchor="middle" x="255" y="-7.5" font-family="Helvetica,sans-Serif" font-size="10.00">VSource</text>
</a>
</g>
</g>
<!-- Node1&#45;&gt;Node5 -->
<g id="edge4" class="edge">
<title>Node1&#45;&gt;Node5</title>
<path fill="none" stroke="midnightblue" d="M202.87,-50.1C215.82,-40.38 232.3,-28.03 243.22,-19.83"/>
<polygon fill="midnightblue" stroke="midnightblue" points="200.47,-47.52 194.57,-56.32 204.67,-53.12 200.47,-47.52"/>
</g>
<!-- Node6 -->
<g id="node6" class="node">
<title>Node6</title>
<g id="a_node6"><a xlink:href="classVTarget.html" target="_top" xlink:title=" ">
<polygon fill="white" stroke="black" points="300,-0.5 300,-19.5 350,-19.5 350,-0.5 300,-0.5"/>
<text text-anchor="middle" x="325" y="-7.5" font-family="Helvetica,sans-Serif" font-size="10.00">VTarget</text>
</a>
</g>
</g>
<!-- Node1&#45;&gt;Node6 -->
<g id="edge5" class="edge">
<title>Node1&#45;&gt;Node6</title>
<path fill="none" stroke="midnightblue" d="M215.16,-52.77C241.83,-42.63 279.07,-28.47 302.6,-19.52"/>
<polygon fill="midnightblue" stroke="midnightblue" points="213.6,-49.62 205.5,-56.44 216.09,-56.16 213.6,-49.62"/>
</g>
</g>
</svg>
