<?xml version="1.0" encoding="UTF-8" standalone="no"?>
<!DOCTYPE svg PUBLIC "-//W3C//DTD SVG 1.1//EN"
 "http://www.w3.org/Graphics/SVG/1.1/DTD/svg11.dtd">
<!-- Generated by graphviz version 2.43.0 (0)
 -->
<!-- Title: Graphical Class Hierarchy Pages: 1 -->
<svg width="165pt" height="180pt"
 viewBox="0.00 0.00 165.00 180.00" xmlns="http://www.w3.org/2000/svg" xmlns:xlink="http://www.w3.org/1999/xlink">
<g id="graph0" class="graph" transform="scale(1 1) rotate(0) translate(4 176)">
<title>Graphical Class Hierarchy</title>
<polygon fill="white" stroke="transparent" points="-4,4 -4,-176 161,-176 161,4 -4,4"/>
<!-- Node0 -->
<g id="node1" class="node">
<title>Node0</title>
<g id="a_node1"><a xlink:href="classVObject.html" target="_top" xlink:title=" ">
<polygon fill="white" stroke="black" points="0,-76.5 0,-95.5 52,-95.5 52,-76.5 0,-76.5"/>
<text text-anchor="middle" x="26" y="-83.5" font-family="Helvetica,sans-Serif" font-size="10.00">VObject</text>
</a>
</g>
</g>
<!-- Node1 -->
<g id="node2" class="node">
<title>Node1</title>
<g id="a_node2"><a xlink:href="classVImage.html" target="_top" xlink:title=" ">
<polygon fill="white" stroke="black" points="97.5,-152.5 97.5,-171.5 147.5,-171.5 147.5,-152.5 97.5,-152.5"/>
<text text-anchor="middle" x="122.5" y="-159.5" font-family="Helvetica,sans-Serif" font-size="10.00">VImage</text>
</a>
</g>
</g>
<!-- Node0&#45;&gt;Node1 -->
<g id="edge1" class="edge">
<title>Node0&#45;&gt;Node1</title>
<path fill="none" stroke="midnightblue" d="M42.88,-102.82C54.68,-114.81 71.52,-130.89 88,-143 92.63,-146.4 97.93,-149.67 102.93,-152.5"/>
<polygon fill="midnightblue" stroke="midnightblue" points="45.37,-100.37 35.9,-95.62 40.34,-105.24 45.37,-100.37"/>
</g>
<!-- Node2 -->
<g id="node3" class="node">
<title>Node2</title>
<g id="a_node3"><a xlink:href="classVInterpolate.html" target="_top" xlink:title=" ">
<polygon fill="white" stroke="black" points="88,-114.5 88,-133.5 157,-133.5 157,-114.5 88,-114.5"/>
<text text-anchor="middle" x="122.5" y="-121.5" font-family="Helvetica,sans-Serif" font-size="10.00">VInterpolate</text>
</a>
</g>
</g>
<!-- Node0&#45;&gt;Node2 -->
<g id="edge2" class="edge">
<title>Node0&#45;&gt;Node2</title>
<path fill="none" stroke="midnightblue" d="M60.35,-99.41C72.66,-104.36 86.36,-109.87 97.66,-114.41"/>
<polygon fill="midnightblue" stroke="midnightblue" points="61.43,-96.07 50.85,-95.59 58.82,-102.57 61.43,-96.07"/>
</g>
<!-- Node3 -->
<g id="node4" class="node">
<title>Node3</title>
<g id="a_node4"><a xlink:href="classVRegion.html" target="_top" xlink:title=" ">
<polygon fill="white" stroke="black" points="95.5,-76.5 95.5,-95.5 149.5,-95.5 149.5,-76.5 95.5,-76.5"/>
<text text-anchor="middle" x="122.5" y="-83.5" font-family="Helvetica,sans-Serif" font-size="10.00">VRegion</text>
</a>
</g>
</g>
<!-- Node0&#45;&gt;Node3 -->
<g id="edge3" class="edge">
<title>Node0&#45;&gt;Node3</title>
<path fill="none" stroke="midnightblue" d="M62.46,-86C73.41,-86 85.26,-86 95.45,-86"/>
<polygon fill="midnightblue" stroke="midnightblue" points="62.32,-82.5 52.32,-86 62.32,-89.5 62.32,-82.5"/>
</g>
<!-- Node4 -->
<g id="node5" class="node">
<title>Node4</title>
<g id="a_node5"><a xlink:href="classVSource.html" target="_top" xlink:title=" ">
<polygon fill="white" stroke="black" points="95.5,-38.5 95.5,-57.5 149.5,-57.5 149.5,-38.5 95.5,-38.5"/>
<text text-anchor="middle" x="122.5" y="-45.5" font-family="Helvetica,sans-Serif" font-size="10.00">VSource</text>
</a>
</g>
</g>
<!-- Node0&#45;&gt;Node4 -->
<g id="edge4" class="edge">
<title>Node0&#45;&gt;Node4</title>
<path fill="none" stroke="midnightblue" d="M60.35,-72.59C72.66,-67.64 86.36,-62.13 97.66,-57.59"/>
<polygon fill="midnightblue" stroke="midnightblue" points="58.82,-69.43 50.85,-76.41 61.43,-75.93 58.82,-69.43"/>
</g>
<!-- Node5 -->
<g id="node6" class="node">
<title>Node5</title>
<g id="a_node6"><a xlink:href="classVTarget.html" target="_top" xlink:title=" ">
<polygon fill="white" stroke="black" points="97.5,-0.5 97.5,-19.5 147.5,-19.5 147.5,-0.5 97.5,-0.5"/>
<text text-anchor="middle" x="122.5" y="-7.5" font-family="Helvetica,sans-Serif" font-size="10.00">VTarget</text>
</a>
</g>
</g>
<!-- Node0&#45;&gt;Node5 -->
<g id="edge5" class="edge">
<title>Node0&#45;&gt;Node5</title>
<path fill="none" stroke="midnightblue" d="M42.88,-69.18C54.68,-57.19 71.52,-41.11 88,-29 92.63,-25.6 97.93,-22.33 102.93,-19.5"/>
<polygon fill="midnightblue" stroke="midnightblue" points="40.34,-66.76 35.9,-76.38 45.37,-71.63 40.34,-66.76"/>
</g>
</g>
</svg>
