<?xml version="1.0" encoding="UTF-8" standalone="no"?>
<!DOCTYPE svg PUBLIC "-//W3C//DTD SVG 1.1//EN"
 "http://www.w3.org/Graphics/SVG/1.1/DTD/svg11.dtd">
<!-- Generated by graphviz version 7.1.0 (0)
 -->
<!-- Title: VObject Pages: 1 -->
<svg width="379pt" height="82pt"
 viewBox="0.00 0.00 378.50 82.00" xmlns="http://www.w3.org/2000/svg" xmlns:xlink="http://www.w3.org/1999/xlink">
<g id="graph0" class="graph" transform="scale(1 1) rotate(0) translate(4 78)">
<title>VObject</title>
<!-- Node1 -->
<g id="node1" class="node">
<title>Node1</title>
<g id="a_node1"><a xlink:title=" ">
<polygon fill="#999999" stroke="#666666" points="223.5,-74 168.5,-74 168.5,-55 223.5,-55 223.5,-74"/>
<text text-anchor="middle" x="196" y="-62" font-family="Helvetica,sans-Serif" font-size="10.00">VObject</text>
</a>
</g>
</g>
<!-- Node2 -->
<g id="node2" class="node">
<title>Node2</title>
<g id="a_node2"><a xlink:href="classVImage.html" target="_top" xlink:title=" ">
<polygon fill="white" stroke="#666666" points="54,-19 0,-19 0,0 54,0 54,-19"/>
<text text-anchor="middle" x="27" y="-7" font-family="Helvetica,sans-Serif" font-size="10.00">VImage</text>
</a>
</g>
</g>
<!-- Node1&#45;&gt;Node2 -->
<g id="edge1" class="edge">
<title>Node1&#45;&gt;Node2</title>
<path fill="none" stroke="#63b8ff" d="M157.11,-51.3C125.69,-41.45 82.25,-27.83 54.39,-19.09"/>
<polygon fill="#63b8ff" stroke="#63b8ff" points="156.06,-54.64 166.65,-54.3 158.15,-47.96 156.06,-54.64"/>
</g>
<!-- Node3 -->
<g id="node3" class="node">
<title>Node3</title>
<g id="a_node3"><a xlink:href="classVInterpolate.html" target="_top" xlink:title=" ">
<polygon fill="white" stroke="#666666" points="149.5,-19 72.5,-19 72.5,0 149.5,0 149.5,-19"/>
<text text-anchor="middle" x="111" y="-7" font-family="Helvetica,sans-Serif" font-size="10.00">VInterpolate</text>
</a>
</g>
</g>
<!-- Node1&#45;&gt;Node3 -->
<g id="edge2" class="edge">
<title>Node1&#45;&gt;Node3</title>
<path fill="none" stroke="#63b8ff" d="M171.88,-48.46C156.81,-39.06 137.91,-27.28 125.21,-19.36"/>
<polygon fill="#63b8ff" stroke="#63b8ff" points="169.96,-51.39 180.3,-53.71 173.66,-45.45 169.96,-51.39"/>
</g>
<!-- Node4 -->
<g id="node4" class="node">
<title>Node4</title>
<g id="a_node4"><a xlink:href="classVRegion.html" target="_top" xlink:title=" ">
<polygon fill="white" stroke="#666666" points="224.5,-19 167.5,-19 167.5,0 224.5,0 224.5,-19"/>
<text text-anchor="middle" x="196" y="-7" font-family="Helvetica,sans-Serif" font-size="10.00">VRegion</text>
</a>
</g>
</g>
<!-- Node1&#45;&gt;Node4 -->
<g id="edge3" class="edge">
<title>Node1&#45;&gt;Node4</title>
<path fill="none" stroke="#63b8ff" d="M196,-43.35C196,-35.1 196,-25.97 196,-19.44"/>
<polygon fill="#63b8ff" stroke="#63b8ff" points="192.5,-43.23 196,-53.23 199.5,-43.23 192.5,-43.23"/>
</g>
<!-- Node5 -->
<g id="node5" class="node">
<title>Node5</title>
<g id="a_node5"><a xlink:href="classVSource.html" target="_top" xlink:title=" ">
<polygon fill="white" stroke="#666666" points="299,-19 243,-19 243,0 299,0 299,-19"/>
<text text-anchor="middle" x="271" y="-7" font-family="Helvetica,sans-Serif" font-size="10.00">VSource</text>
</a>
</g>
</g>
<!-- Node1&#45;&gt;Node5 -->
<g id="edge4" class="edge">
<title>Node1&#45;&gt;Node5</title>
<path fill="none" stroke="#63b8ff" d="M218.05,-47.92C231.22,-38.61 247.47,-27.13 258.47,-19.36"/>
<polygon fill="#63b8ff" stroke="#63b8ff" points="216.11,-45.01 209.96,-53.64 220.15,-50.72 216.11,-45.01"/>
</g>
<!-- Node6 -->
<g id="node6" class="node">
<title>Node6</title>
<g id="a_node6"><a xlink:href="classVTarget.html" target="_top" xlink:title=" ">
<polygon fill="white" stroke="#666666" points="370.5,-19 317.5,-19 317.5,0 370.5,0 370.5,-19"/>
<text text-anchor="middle" x="344" y="-7" font-family="Helvetica,sans-Serif" font-size="10.00">VTarget</text>
</a>
</g>
</g>
<!-- Node1&#45;&gt;Node6 -->
<g id="edge5" class="edge">
<title>Node1&#45;&gt;Node6</title>
<path fill="none" stroke="#63b8ff" d="M231.71,-50.71C258.79,-41.01 295.33,-27.93 319.26,-19.36"/>
<polygon fill="#63b8ff" stroke="#63b8ff" points="230.77,-47.33 222.53,-54 233.13,-53.92 230.77,-47.33"/>
</g>
</g>
</svg>
