<?xml version="1.0" encoding="UTF-8" standalone="no"?>
<!DOCTYPE svg PUBLIC "-//W3C//DTD SVG 1.1//EN"
 "http://www.w3.org/Graphics/SVG/1.1/DTD/svg11.dtd">
<!-- Generated by graphviz version 7.1.0 (0)
 -->
<!-- Title: Graph Legend Pages: 1 -->
<svg width="544pt" height="159pt"
 viewBox="0.00 0.00 543.50 159.00" xmlns="http://www.w3.org/2000/svg" xmlns:xlink="http://www.w3.org/1999/xlink">
<g id="graph0" class="graph" transform="scale(1 1) rotate(0) translate(4 155)">
<title>Graph Legend</title>
<!-- Node9 -->
<g id="node1" class="node">
<title>Node9</title>
<g id="a_node1"><a xlink:title=" ">
<polygon fill="#999999" stroke="#666666" points="311,-19 251,-19 251,0 311,0 311,-19"/>
<text text-anchor="middle" x="281" y="-7" font-family="Helvetica,sans-Serif" font-size="10.00">Inherited</text>
</a>
</g>
</g>
<!-- Node10 -->
<g id="node2" class="node">
<title>Node10</title>
<g id="a_node2"><a xlink:href="url.html" xlink:title=" ">
<polygon fill="white" stroke="#666666" points="70,-85 0,-85 0,-66 70,-66 70,-85"/>
<text text-anchor="middle" x="35" y="-73" font-family="Helvetica,sans-Serif" font-size="10.00">PublicBase</text>
</a>
</g>
</g>
<!-- Node10&#45;&gt;Node9 -->
<g id="edge1" class="edge">
<title>Node10&#45;&gt;Node9</title>
<path fill="none" stroke="#63b8ff" d="M80.5,-62.66C130.08,-49.76 208,-29.49 250.64,-18.4"/>
<polygon fill="#63b8ff" stroke="#63b8ff" points="79.73,-59.25 70.93,-65.15 81.49,-66.02 79.73,-59.25"/>
</g>
<!-- Node11 -->
<g id="node3" class="node">
<title>Node11</title>
<g id="a_node3"><a xlink:href="url.html" xlink:title=" ">
<polygon fill="#fff0f0" stroke="red" points="67,-151 3,-151 3,-132 67,-132 67,-151"/>
<text text-anchor="middle" x="35" y="-139" font-family="Helvetica,sans-Serif" font-size="10.00">Truncated</text>
</a>
</g>
</g>
<!-- Node11&#45;&gt;Node10 -->
<g id="edge2" class="edge">
<title>Node11&#45;&gt;Node10</title>
<path fill="none" stroke="#63b8ff" d="M35,-120.18C35,-108.44 35,-94.27 35,-85.32"/>
<polygon fill="#63b8ff" stroke="#63b8ff" points="31.5,-120.09 35,-130.09 38.5,-120.09 31.5,-120.09"/>
</g>
<!-- Node13 -->
<g id="node4" class="node">
<title>Node13</title>
<polygon fill="white" stroke="#666666" points="175.5,-85 88.5,-85 88.5,-66 175.5,-66 175.5,-85"/>
<text text-anchor="middle" x="132" y="-73" font-family="Helvetica,sans-Serif" font-size="10.00">ProtectedBase</text>
</g>
<!-- Node13&#45;&gt;Node9 -->
<g id="edge3" class="edge">
<title>Node13&#45;&gt;Node9</title>
<path fill="none" stroke="darkgreen" d="M163.19,-61.1C192.43,-48.54 235.3,-30.13 260.46,-19.32"/>
<polygon fill="darkgreen" stroke="darkgreen" points="161.92,-57.84 154.11,-65 164.68,-64.27 161.92,-57.84"/>
</g>
<!-- Node14 -->
<g id="node5" class="node">
<title>Node14</title>
<polygon fill="white" stroke="#666666" points="268.5,-85 193.5,-85 193.5,-66 268.5,-66 268.5,-85"/>
<text text-anchor="middle" x="231" y="-73" font-family="Helvetica,sans-Serif" font-size="10.00">PrivateBase</text>
</g>
<!-- Node14&#45;&gt;Node9 -->
<g id="edge4" class="edge">
<title>Node14&#45;&gt;Node9</title>
<path fill="none" stroke="#8b1a1a" d="M244.86,-56.76C254.37,-44.58 266.59,-28.94 274.11,-19.32"/>
<polygon fill="#8b1a1a" stroke="#8b1a1a" points="242.28,-54.37 238.88,-64.41 247.8,-58.68 242.28,-54.37"/>
</g>
<!-- Node15 -->
<g id="node6" class="node">
<title>Node15</title>
<g id="a_node6"><a xlink:title=" ">
<polygon fill="#e0e0e0" stroke="#999999" points="377.5,-85 286.5,-85 286.5,-66 377.5,-66 377.5,-85"/>
<text text-anchor="middle" x="332" y="-73" font-family="Helvetica,sans-Serif" font-size="10.00">Undocumented</text>
</a>
</g>
</g>
<!-- Node15&#45;&gt;Node9 -->
<g id="edge5" class="edge">
<title>Node15&#45;&gt;Node9</title>
<path fill="none" stroke="#63b8ff" d="M317.86,-56.76C308.16,-44.58 295.69,-28.94 288.03,-19.32"/>
<polygon fill="#63b8ff" stroke="#63b8ff" points="315,-58.78 323.97,-64.42 320.47,-54.42 315,-58.78"/>
</g>
<!-- Node16 -->
<g id="node7" class="node">
<title>Node16</title>
<polygon fill="white" stroke="#666666" points="476.5,-85 395.5,-85 395.5,-66 476.5,-66 476.5,-85"/>
<text text-anchor="middle" x="436" y="-73" font-family="Helvetica,sans-Serif" font-size="10.00">Templ&lt; int &gt;</text>
</g>
<!-- Node16&#45;&gt;Node9 -->
<g id="edge6" class="edge">
<title>Node16&#45;&gt;Node9</title>
<path fill="none" stroke="#63b8ff" d="M403.95,-61.27C373.53,-48.71 328.66,-30.18 302.37,-19.32"/>
<polygon fill="#63b8ff" stroke="#63b8ff" points="402.47,-64.44 413.05,-65.02 405.14,-57.97 402.47,-64.44"/>
</g>
<!-- Node17 -->
<g id="node8" class="node">
<title>Node17</title>
<polygon fill="white" stroke="#666666" points="473,-151 399,-151 399,-132 473,-132 473,-151"/>
<text text-anchor="middle" x="436" y="-139" font-family="Helvetica,sans-Serif" font-size="10.00">Templ&lt; T &gt;</text>
</g>
<!-- Node17&#45;&gt;Node16 -->
<g id="edge7" class="edge">
<title>Node17&#45;&gt;Node16</title>
<path fill="none" stroke="orange" stroke-dasharray="5,2" d="M436,-120.18C436,-108.44 436,-94.27 436,-85.32"/>
<polygon fill="orange" stroke="orange" points="432.5,-120.09 436,-130.09 439.5,-120.09 432.5,-120.09"/>
<text text-anchor="middle" x="454" y="-106" font-family="Helvetica,sans-Serif" font-size="10.00">&lt; int &gt;</text>
</g>
<!-- Node18 -->
<g id="node9" class="node">
<title>Node18</title>
<polygon fill="white" stroke="#666666" points="535.5,-85 494.5,-85 494.5,-66 535.5,-66 535.5,-85"/>
<text text-anchor="middle" x="515" y="-73" font-family="Helvetica,sans-Serif" font-size="10.00">Used</text>
</g>
<!-- Node18&#45;&gt;Node9 -->
<g id="edge8" class="edge">
<title>Node18&#45;&gt;Node9</title>
<path fill="none" stroke="#9a32cd" stroke-dasharray="5,2" d="M483.42,-65.31C416.77,-46.59 349.29,-28.56 311.27,-18.49"/>
<polygon fill="#9a32cd" stroke="#9a32cd" points="482.07,-68.57 492.65,-67.91 483.97,-61.83 482.07,-68.57"/>
<text text-anchor="middle" x="450.5" y="-40" font-family="Helvetica,sans-Serif" font-size="10.00">m_usedClass</text>
</g>
</g>
</svg>
