<?xml version="1.0" encoding="UTF-8" standalone="no"?>
<!DOCTYPE svg PUBLIC "-//W3C//DTD SVG 1.1//EN"
 "http://www.w3.org/Graphics/SVG/1.1/DTD/svg11.dtd">
<!-- Generated by graphviz version 7.1.0 (0)
 -->
<!-- Title: Graphical Class Hierarchy Pages: 1 -->
<svg width="176pt" height="175pt"
 viewBox="0.00 0.00 176.00 175.00" xmlns="http://www.w3.org/2000/svg" xmlns:xlink="http://www.w3.org/1999/xlink">
<g id="graph0" class="graph" transform="scale(1 1) rotate(0) translate(4 171)">
<title>Graphical Class Hierarchy</title>
<!-- Node0 -->
<g id="node1" class="node">
<title>Node0</title>
<g id="a_node1"><a xlink:href="classVObject.html" target="_top" xlink:title=" ">
<polygon fill="white" stroke="#666666" points="55,-93 0,-93 0,-74 55,-74 55,-93"/>
<text text-anchor="middle" x="27.5" y="-81" font-family="Helvetica,sans-Serif" font-size="10.00">VObject</text>
</a>
</g>
</g>
<!-- Node1 -->
<g id="node2" class="node">
<title>Node1</title>
<g id="a_node2"><a xlink:href="classVImage.html" target="_top" xlink:title=" ">
<polygon fill="white" stroke="#666666" points="156.5,-167 102.5,-167 102.5,-148 156.5,-148 156.5,-167"/>
<text text-anchor="middle" x="129.5" y="-155" font-family="Helvetica,sans-Serif" font-size="10.00">VImage</text>
</a>
</g>
</g>
<!-- Node0&#45;&gt;Node1 -->
<g id="edge1" class="edge">
<title>Node0&#45;&gt;Node1</title>
<path fill="none" stroke="#63b8ff" d="M45.33,-101C57.33,-112.84 74.23,-128.3 91,-139.5 95.44,-142.47 100.45,-145.23 105.33,-147.64"/>
<polygon fill="#63b8ff" stroke="#63b8ff" points="48.13,-98.85 38.61,-94.21 43.16,-103.78 48.13,-98.85"/>
</g>
<!-- Node2 -->
<g id="node3" class="node">
<title>Node2</title>
<g id="a_node3"><a xlink:href="classVInterpolate.html" target="_top" xlink:title=" ">
<polygon fill="white" stroke="#666666" points="168,-130 91,-130 91,-111 168,-111 168,-130"/>
<text text-anchor="middle" x="129.5" y="-118" font-family="Helvetica,sans-Serif" font-size="10.00">VInterpolate</text>
</a>
</g>
</g>
<!-- Node0&#45;&gt;Node2 -->
<g id="edge2" class="edge">
<title>Node0&#45;&gt;Node2</title>
<path fill="none" stroke="#63b8ff" d="M65.84,-97.32C77.73,-101.71 90.63,-106.49 101.63,-110.56"/>
<polygon fill="#63b8ff" stroke="#63b8ff" points="67.31,-94.13 56.72,-93.94 64.88,-100.69 67.31,-94.13"/>
</g>
<!-- Node3 -->
<g id="node4" class="node">
<title>Node3</title>
<g id="a_node4"><a xlink:href="classVRegion.html" target="_top" xlink:title=" ">
<polygon fill="white" stroke="#666666" points="158,-93 101,-93 101,-74 158,-74 158,-93"/>
<text text-anchor="middle" x="129.5" y="-81" font-family="Helvetica,sans-Serif" font-size="10.00">VRegion</text>
</a>
</g>
</g>
<!-- Node0&#45;&gt;Node3 -->
<g id="edge3" class="edge">
<title>Node0&#45;&gt;Node3</title>
<path fill="none" stroke="#63b8ff" d="M66.64,-83.5C77.93,-83.5 90.07,-83.5 100.58,-83.5"/>
<polygon fill="#63b8ff" stroke="#63b8ff" points="66.81,-80 56.81,-83.5 66.81,-87 66.81,-80"/>
</g>
<!-- Node4 -->
<g id="node5" class="node">
<title>Node4</title>
<g id="a_node5"><a xlink:href="classVSource.html" target="_top" xlink:title=" ">
<polygon fill="white" stroke="#666666" points="157.5,-56 101.5,-56 101.5,-37 157.5,-37 157.5,-56"/>
<text text-anchor="middle" x="129.5" y="-44" font-family="Helvetica,sans-Serif" font-size="10.00">VSource</text>
</a>
</g>
</g>
<!-- Node0&#45;&gt;Node4 -->
<g id="edge4" class="edge">
<title>Node0&#45;&gt;Node4</title>
<path fill="none" stroke="#63b8ff" d="M65.84,-69.68C77.73,-65.29 90.63,-60.51 101.63,-56.44"/>
<polygon fill="#63b8ff" stroke="#63b8ff" points="64.88,-66.31 56.72,-73.06 67.31,-72.87 64.88,-66.31"/>
</g>
<!-- Node5 -->
<g id="node6" class="node">
<title>Node5</title>
<g id="a_node6"><a xlink:href="classVTarget.html" target="_top" xlink:title=" ">
<polygon fill="white" stroke="#666666" points="156,-19 103,-19 103,0 156,0 156,-19"/>
<text text-anchor="middle" x="129.5" y="-7" font-family="Helvetica,sans-Serif" font-size="10.00">VTarget</text>
</a>
</g>
</g>
<!-- Node0&#45;&gt;Node5 -->
<g id="edge5" class="edge">
<title>Node0&#45;&gt;Node5</title>
<path fill="none" stroke="#63b8ff" d="M46.24,-65.71C58.23,-54.24 74.79,-39.48 91,-28.5 95.83,-25.23 101.31,-22.14 106.55,-19.45"/>
<polygon fill="#63b8ff" stroke="#63b8ff" points="43.83,-63.17 39.12,-72.66 48.72,-68.18 43.83,-63.17"/>
</g>
</g>
</svg>
