<?xml version="1.0" encoding="UTF-8" standalone="no"?>
<!DOCTYPE svg PUBLIC "-//W3C//DTD SVG 1.1//EN"
 "http://www.w3.org/Graphics/SVG/1.1/DTD/svg11.dtd">
<!-- Generated by graphviz version 8.1.0 (20230707.0739)
 -->
<!-- Title: Graphical Class Hierarchy Pages: 1 -->
<svg width="174pt" height="185pt"
 viewBox="0.00 0.00 174.25 184.75" xmlns="http://www.w3.org/2000/svg" xmlns:xlink="http://www.w3.org/1999/xlink">
<g id="graph0" class="graph" transform="scale(1 1) rotate(0) translate(4 180.75)">
<title>Graphical Class Hierarchy</title>
<!-- Node0 -->
<g id="Node000000" class="node">
<title>Node0</title>
<g id="a_Node000000"><a xlink:href="classVObject.html" target="_top" xlink:title=" ">
<polygon fill="white" stroke="#666666" points="54.25,-98.75 0,-98.75 0,-78 54.25,-78 54.25,-98.75"/>
<text text-anchor="middle" x="27.12" y="-85.25" font-family="Helvetica,sans-Serif" font-size="10.00">VObject</text>
</a>
</g>
</g>
<!-- Node1 -->
<g id="Node000001" class="node">
<title>Node1</title>
<g id="a_Node000001"><a xlink:href="classVImage.html" target="_top" xlink:title=" ">
<polygon fill="white" stroke="#666666" points="155,-176.75 101.5,-176.75 101.5,-156 155,-156 155,-176.75"/>
<text text-anchor="middle" x="128.25" y="-163.25" font-family="Helvetica,sans-Serif" font-size="10.00">VImage</text>
</a>
</g>
</g>
<!-- Node0&#45;&gt;Node1 -->
<g id="edge2_Node000000_Node000001" class="edge">
<title>Node0&#45;&gt;Node1</title>
<g id="a_edge2_Node000000_Node000001"><a xlink:title=" ">
<path fill="none" stroke="#63b8ff" d="M45.41,-106.81C57.32,-118.91 73.9,-134.62 90.25,-146.38 94.87,-149.7 100.12,-152.86 105.17,-155.64"/>
<polygon fill="#63b8ff" stroke="#63b8ff" points="48.43,-104.86 38.97,-100.09 43.39,-109.72 48.43,-104.86"/>
</a>
</g>
</g>
<!-- Node2 -->
<g id="Node000002" class="node">
<title>Node2</title>
<g id="a_Node000002"><a xlink:href="classVInterpolate.html" target="_top" xlink:title=" ">
<polygon fill="white" stroke="#666666" points="166.25,-137.75 90.25,-137.75 90.25,-117 166.25,-117 166.25,-137.75"/>
<text text-anchor="middle" x="128.25" y="-124.25" font-family="Helvetica,sans-Serif" font-size="10.00">VInterpolate</text>
</a>
</g>
</g>
<!-- Node0&#45;&gt;Node2 -->
<g id="edge3_Node000000_Node000002" class="edge">
<title>Node0&#45;&gt;Node2</title>
<g id="a_edge3_Node000000_Node000002"><a xlink:title=" ">
<path fill="none" stroke="#63b8ff" d="M64.61,-102.73C76.29,-107.33 89.01,-112.33 99.92,-116.62"/>
<polygon fill="#63b8ff" stroke="#63b8ff" points="66.28,-99.23 55.69,-98.83 63.71,-105.74 66.28,-99.23"/>
</a>
</g>
</g>
<!-- Node3 -->
<g id="Node000003" class="node">
<title>Node3</title>
<g id="a_Node000003"><a xlink:href="classVRegion.html" target="_top" xlink:title=" ">
<polygon fill="white" stroke="#666666" points="156.5,-98.75 100,-98.75 100,-78 156.5,-78 156.5,-98.75"/>
<text text-anchor="middle" x="128.25" y="-85.25" font-family="Helvetica,sans-Serif" font-size="10.00">VRegion</text>
</a>
</g>
</g>
<!-- Node0&#45;&gt;Node3 -->
<g id="edge4_Node000000_Node000003" class="edge">
<title>Node0&#45;&gt;Node3</title>
<g id="a_edge4_Node000000_Node000003"><a xlink:title=" ">
<path fill="none" stroke="#63b8ff" d="M65.58,-88.38C76.87,-88.38 89.05,-88.38 99.57,-88.38"/>
<polygon fill="#63b8ff" stroke="#63b8ff" points="65.69,-84.88 55.69,-88.38 65.69,-91.88 65.69,-84.88"/>
</a>
</g>
</g>
<!-- Node4 -->
<g id="Node000004" class="node">
<title>Node4</title>
<g id="a_Node000004"><a xlink:href="classVSource.html" target="_top" xlink:title=" ">
<polygon fill="white" stroke="#666666" points="156.12,-59.75 100.38,-59.75 100.38,-39 156.12,-39 156.12,-59.75"/>
<text text-anchor="middle" x="128.25" y="-46.25" font-family="Helvetica,sans-Serif" font-size="10.00">VSource</text>
</a>
</g>
</g>
<!-- Node0&#45;&gt;Node4 -->
<g id="edge5_Node000000_Node000004" class="edge">
<title>Node0&#45;&gt;Node4</title>
<g id="a_edge5_Node000000_Node000004"><a xlink:title=" ">
<path fill="none" stroke="#63b8ff" d="M64.61,-74.02C76.29,-69.42 89.01,-64.42 99.92,-60.13"/>
<polygon fill="#63b8ff" stroke="#63b8ff" points="63.71,-71.01 55.69,-77.92 66.28,-77.52 63.71,-71.01"/>
</a>
</g>
</g>
<!-- Node5 -->
<g id="Node000005" class="node">
<title>Node5</title>
<g id="a_Node000005"><a xlink:href="classVTarget.html" target="_top" xlink:title=" ">
<polygon fill="white" stroke="#666666" points="154.62,-20.75 101.88,-20.75 101.88,0 154.62,0 154.62,-20.75"/>
<text text-anchor="middle" x="128.25" y="-7.25" font-family="Helvetica,sans-Serif" font-size="10.00">VTarget</text>
</a>
</g>
</g>
<!-- Node0&#45;&gt;Node5 -->
<g id="edge6_Node000000_Node000005" class="edge">
<title>Node0&#45;&gt;Node5</title>
<g id="a_edge6_Node000000_Node000005"><a xlink:title=" ">
<path fill="none" stroke="#63b8ff" d="M45.41,-69.94C57.32,-57.84 73.9,-42.13 90.25,-30.38 94.87,-27.05 100.12,-23.89 105.17,-21.11"/>
<polygon fill="#63b8ff" stroke="#63b8ff" points="43.39,-67.03 38.97,-76.66 48.43,-71.89 43.39,-67.03"/>
</a>
</g>
</g>
</g>
</svg>
