<?xml version="1.0" encoding="UTF-8" standalone="no"?>
<!DOCTYPE svg PUBLIC "-//W3C//DTD SVG 1.1//EN"
 "http://www.w3.org/Graphics/SVG/1.1/DTD/svg11.dtd">
<!-- Generated by graphviz version 2.42.4 (0)
 -->
<!-- Title: VObject Pages: 1 -->
<svg width="358pt" height="82pt"
 viewBox="0.00 0.00 358.00 82.00" xmlns="http://www.w3.org/2000/svg" xmlns:xlink="http://www.w3.org/1999/xlink">
<g id="graph0" class="graph" transform="scale(1 1) rotate(0) translate(4 78)">
<title>VObject</title>
<!-- Node1 -->
<g id="Node000001" class="node">
<title>Node1</title>
<g id="a_Node000001"><a xlink:title=" ">
<polygon fill="#999999" stroke="#666666" points="209,-74 157,-74 157,-55 209,-55 209,-74"/>
<text text-anchor="middle" x="183" y="-62" font-family="Helvetica,sans-Serif" font-size="10.00">VObject</text>
</a>
</g>
</g>
<!-- Node2 -->
<g id="Node000002" class="node">
<title>Node2</title>
<g id="a_Node000002"><a xlink:href="classVImage.html" target="_top" xlink:title=" ">
<polygon fill="white" stroke="#666666" points="50,-19 0,-19 0,0 50,0 50,-19"/>
<text text-anchor="middle" x="25" y="-7" font-family="Helvetica,sans-Serif" font-size="10.00">VImage</text>
</a>
</g>
</g>
<!-- Node1&#45;&gt;Node2 -->
<g id="edge1_Node000001_Node000002" class="edge">
<title>Node1&#45;&gt;Node2</title>
<g id="a_edge1_Node000001_Node000002"><a xlink:title=" ">
<path fill="none" stroke="#63b8ff" d="M148.06,-51.78C118.38,-41.82 76.5,-27.78 50.06,-18.91"/>
<polygon fill="#63b8ff" stroke="#63b8ff" points="147.02,-55.12 157.61,-54.98 149.25,-48.49 147.02,-55.12"/>
</a>
</g>
</g>
<!-- Node3 -->
<g id="Node000003" class="node">
<title>Node3</title>
<g id="a_Node000003"><a xlink:href="classVInterpolate.html" target="_top" xlink:title=" ">
<polygon fill="white" stroke="#666666" points="137.5,-19 68.5,-19 68.5,0 137.5,0 137.5,-19"/>
<text text-anchor="middle" x="103" y="-7" font-family="Helvetica,sans-Serif" font-size="10.00">VInterpolate</text>
</a>
</g>
</g>
<!-- Node1&#45;&gt;Node3 -->
<g id="edge2_Node000001_Node000003" class="edge">
<title>Node1&#45;&gt;Node3</title>
<g id="a_edge2_Node000001_Node000003"><a xlink:title=" ">
<path fill="none" stroke="#63b8ff" d="M161.75,-49.42C147.24,-39.81 128.46,-27.37 116.09,-19.17"/>
<polygon fill="#63b8ff" stroke="#63b8ff" points="159.88,-52.38 170.15,-54.98 163.74,-46.54 159.88,-52.38"/>
</a>
</g>
</g>
<!-- Node4 -->
<g id="Node000004" class="node">
<title>Node4</title>
<g id="a_Node000004"><a xlink:href="classVRegion.html" target="_top" xlink:title=" ">
<polygon fill="white" stroke="#666666" points="210,-19 156,-19 156,0 210,0 210,-19"/>
<text text-anchor="middle" x="183" y="-7" font-family="Helvetica,sans-Serif" font-size="10.00">VRegion</text>
</a>
</g>
</g>
<!-- Node1&#45;&gt;Node4 -->
<g id="edge3_Node000001_Node000004" class="edge">
<title>Node1&#45;&gt;Node4</title>
<g id="a_edge3_Node000001_Node000004"><a xlink:title=" ">
<path fill="none" stroke="#63b8ff" d="M183,-44.66C183,-35.93 183,-25.99 183,-19.09"/>
<polygon fill="#63b8ff" stroke="#63b8ff" points="179.5,-44.75 183,-54.75 186.5,-44.75 179.5,-44.75"/>
</a>
</g>
</g>
<!-- Node5 -->
<g id="Node000005" class="node">
<title>Node5</title>
<g id="a_Node000005"><a xlink:href="classVSource.html" target="_top" xlink:title=" ">
<polygon fill="white" stroke="#666666" points="282,-19 228,-19 228,0 282,0 282,-19"/>
<text text-anchor="middle" x="255" y="-7" font-family="Helvetica,sans-Serif" font-size="10.00">VSource</text>
</a>
</g>
</g>
<!-- Node1&#45;&gt;Node5 -->
<g id="edge4_Node000001_Node000005" class="edge">
<title>Node1&#45;&gt;Node5</title>
<g id="a_edge4_Node000001_Node000005"><a xlink:title=" ">
<path fill="none" stroke="#63b8ff" d="M202.87,-48.88C215.82,-39.34 232.3,-27.21 243.22,-19.17"/>
<polygon fill="#63b8ff" stroke="#63b8ff" points="200.55,-46.24 194.57,-54.98 204.7,-51.88 200.55,-46.24"/>
</a>
</g>
</g>
<!-- Node6 -->
<g id="Node000006" class="node">
<title>Node6</title>
<g id="a_Node000006"><a xlink:href="classVTarget.html" target="_top" xlink:title=" ">
<polygon fill="white" stroke="#666666" points="350,-19 300,-19 300,0 350,0 350,-19"/>
<text text-anchor="middle" x="325" y="-7" font-family="Helvetica,sans-Serif" font-size="10.00">VTarget</text>
</a>
</g>
</g>
<!-- Node1&#45;&gt;Node6 -->
<g id="edge5_Node000001_Node000006" class="edge">
<title>Node1&#45;&gt;Node6</title>
<g id="a_edge5_Node000001_Node000006"><a xlink:title=" ">
<path fill="none" stroke="#63b8ff" d="M215.36,-51.42C241.71,-41.59 278.26,-27.95 301.77,-19.17"/>
<polygon fill="#63b8ff" stroke="#63b8ff" points="213.96,-48.21 205.81,-54.98 216.41,-54.77 213.96,-48.21"/>
</a>
</g>
</g>
</g>
</svg>
