<?xml version="1.0" encoding="UTF-8" standalone="no"?>
<!DOCTYPE svg PUBLIC "-//W3C//DTD SVG 1.1//EN"
 "http://www.w3.org/Graphics/SVG/1.1/DTD/svg11.dtd">
<!-- Generated by graphviz version 2.43.0 (0)
 -->
<!-- Title: Graphical Class Hierarchy Pages: 1 -->
<svg width="165pt" height="175pt"
 viewBox="0.00 0.00 165.00 175.00" xmlns="http://www.w3.org/2000/svg" xmlns:xlink="http://www.w3.org/1999/xlink">
<g id="graph0" class="graph" transform="scale(1 1) rotate(0) translate(4 171)">
<title>Graphical Class Hierarchy</title>
<!-- Node0 -->
<g id="Node000000" class="node">
<title>Node0</title>
<g id="a_Node000000"><a xlink:href="classVObject.html" target="_top" xlink:title=" ">
<polygon fill="white" stroke="#666666" points="52,-93 0,-93 0,-74 52,-74 52,-93"/>
<text text-anchor="middle" x="26" y="-81" font-family="Helvetica,sans-Serif" font-size="10.00">VObject</text>
</a>
</g>
</g>
<!-- Node1 -->
<g id="Node000001" class="node">
<title>Node1</title>
<g id="a_Node000001"><a xlink:href="classVImage.html" target="_top" xlink:title=" ">
<polygon fill="white" stroke="#666666" points="147.5,-167 97.5,-167 97.5,-148 147.5,-148 147.5,-167"/>
<text text-anchor="middle" x="122.5" y="-155" font-family="Helvetica,sans-Serif" font-size="10.00">VImage</text>
</a>
</g>
</g>
<!-- Node0&#45;&gt;Node1 -->
<g id="edge2_Node000000_Node000001" class="edge">
<title>Node0&#45;&gt;Node1</title>
<g id="a_edge2_Node000000_Node000001"><a xlink:title=" ">
<path fill="none" stroke="#63b8ff" d="M43.18,-100.46C54.95,-112.24 71.62,-127.86 88,-139.5 92.2,-142.48 96.95,-145.32 101.52,-147.82"/>
<polygon fill="#63b8ff" stroke="#63b8ff" points="45.38,-97.7 35.88,-93 40.38,-102.6 45.38,-97.7"/>
</a>
</g>
</g>
<!-- Node2 -->
<g id="Node000002" class="node">
<title>Node2</title>
<g id="a_Node000002"><a xlink:href="classVInterpolate.html" target="_top" xlink:title=" ">
<polygon fill="white" stroke="#666666" points="157,-130 88,-130 88,-111 157,-111 157,-130"/>
<text text-anchor="middle" x="122.5" y="-118" font-family="Helvetica,sans-Serif" font-size="10.00">VInterpolate</text>
</a>
</g>
</g>
<!-- Node0&#45;&gt;Node2 -->
<g id="edge3_Node000000_Node000002" class="edge">
<title>Node0&#45;&gt;Node2</title>
<g id="a_edge3_Node000000_Node000002"><a xlink:title=" ">
<path fill="none" stroke="#63b8ff" d="M60.96,-96.8C72.84,-101.45 85.95,-106.58 96.92,-110.88"/>
<polygon fill="#63b8ff" stroke="#63b8ff" points="61.92,-93.42 51.34,-93.03 59.37,-99.93 61.92,-93.42"/>
</a>
</g>
</g>
<!-- Node3 -->
<g id="Node000003" class="node">
<title>Node3</title>
<g id="a_Node000003"><a xlink:href="classVRegion.html" target="_top" xlink:title=" ">
<polygon fill="white" stroke="#666666" points="149.5,-93 95.5,-93 95.5,-74 149.5,-74 149.5,-93"/>
<text text-anchor="middle" x="122.5" y="-81" font-family="Helvetica,sans-Serif" font-size="10.00">VRegion</text>
</a>
</g>
</g>
<!-- Node0&#45;&gt;Node3 -->
<g id="edge4_Node000000_Node000003" class="edge">
<title>Node0&#45;&gt;Node3</title>
<g id="a_edge4_Node000000_Node000003"><a xlink:title=" ">
<path fill="none" stroke="#63b8ff" d="M62.46,-83.5C73.41,-83.5 85.26,-83.5 95.45,-83.5"/>
<polygon fill="#63b8ff" stroke="#63b8ff" points="62.32,-80 52.32,-83.5 62.32,-87 62.32,-80"/>
</a>
</g>
</g>
<!-- Node4 -->
<g id="Node000004" class="node">
<title>Node4</title>
<g id="a_Node000004"><a xlink:href="classVSource.html" target="_top" xlink:title=" ">
<polygon fill="white" stroke="#666666" points="149.5,-56 95.5,-56 95.5,-37 149.5,-37 149.5,-56"/>
<text text-anchor="middle" x="122.5" y="-44" font-family="Helvetica,sans-Serif" font-size="10.00">VSource</text>
</a>
</g>
</g>
<!-- Node0&#45;&gt;Node4 -->
<g id="edge5_Node000000_Node000004" class="edge">
<title>Node0&#45;&gt;Node4</title>
<g id="a_edge5_Node000000_Node000004"><a xlink:title=" ">
<path fill="none" stroke="#63b8ff" d="M60.96,-70.2C72.84,-65.55 85.95,-60.42 96.92,-56.12"/>
<polygon fill="#63b8ff" stroke="#63b8ff" points="59.37,-67.07 51.34,-73.97 61.92,-73.58 59.37,-67.07"/>
</a>
</g>
</g>
<!-- Node5 -->
<g id="Node000005" class="node">
<title>Node5</title>
<g id="a_Node000005"><a xlink:href="classVTarget.html" target="_top" xlink:title=" ">
<polygon fill="white" stroke="#666666" points="147.5,-19 97.5,-19 97.5,0 147.5,0 147.5,-19"/>
<text text-anchor="middle" x="122.5" y="-7" font-family="Helvetica,sans-Serif" font-size="10.00">VTarget</text>
</a>
</g>
</g>
<!-- Node0&#45;&gt;Node5 -->
<g id="edge6_Node000000_Node000005" class="edge">
<title>Node0&#45;&gt;Node5</title>
<g id="a_edge6_Node000000_Node000005"><a xlink:title=" ">
<path fill="none" stroke="#63b8ff" d="M43.73,-66.58C55.53,-55.12 72.03,-40.02 88,-28.5 92.66,-25.14 97.97,-21.89 102.97,-19.06"/>
<polygon fill="#63b8ff" stroke="#63b8ff" points="41.03,-64.33 36.37,-73.85 45.95,-69.31 41.03,-64.33"/>
</a>
</g>
</g>
</g>
</svg>
