<?xml version="1.0" encoding="UTF-8" standalone="no"?>
<!DOCTYPE svg PUBLIC "-//W3C//DTD SVG 1.1//EN"
 "http://www.w3.org/Graphics/SVG/1.1/DTD/svg11.dtd">
<!-- Generated by graphviz version 12.2.1 (20241206.2353)
 -->
<!-- Title: VObject Pages: 1 -->
<svg width="374pt" height="86pt"
 viewBox="0.00 0.00 374.12 85.50" xmlns="http://www.w3.org/2000/svg" xmlns:xlink="http://www.w3.org/1999/xlink">
<g id="graph0" class="graph" transform="scale(1 1) rotate(0) translate(4 81.5)">
<title>VObject</title>
<!-- Node1 -->
<g id="Node000001" class="node">
<title>Node1</title>
<g id="a_Node000001"><a xlink:title=" ">
<polygon fill="#999999" stroke="#666666" points="220.88,-77.5 166.62,-77.5 166.62,-56.75 220.88,-56.75 220.88,-77.5"/>
<text text-anchor="middle" x="193.75" y="-64" font-family="Helvetica,sans-Serif" font-size="10.00">VObject</text>
</a>
</g>
</g>
<!-- Node2 -->
<g id="Node000002" class="node">
<title>Node2</title>
<g id="a_Node000002"><a xlink:href="classVImage.html" target="_top" xlink:title=" ">
<polygon fill="white" stroke="#666666" points="53.5,-20.75 0,-20.75 0,0 53.5,0 53.5,-20.75"/>
<text text-anchor="middle" x="26.75" y="-7.25" font-family="Helvetica,sans-Serif" font-size="10.00">VImage</text>
</a>
</g>
</g>
<!-- Node1&#45;&gt;Node2 -->
<g id="edge1_Node000001_Node000002" class="edge">
<title>Node1&#45;&gt;Node2</title>
<g id="a_edge1_Node000001_Node000002"><a xlink:title=" ">
<path fill="none" stroke="#63b8ff" d="M155.32,-53.53C124.27,-43.35 81.35,-29.27 53.81,-20.25"/>
<polygon fill="#63b8ff" stroke="#63b8ff" points="154.14,-56.82 164.74,-56.61 156.32,-50.17 154.14,-56.82"/>
</a>
</g>
</g>
<!-- Node3 -->
<g id="Node000003" class="node">
<title>Node3</title>
<g id="a_Node000003"><a xlink:href="classVInterpolate.html" target="_top" xlink:title=" ">
<polygon fill="white" stroke="#666666" points="147.75,-20.75 71.75,-20.75 71.75,0 147.75,0 147.75,-20.75"/>
<text text-anchor="middle" x="109.75" y="-7.25" font-family="Helvetica,sans-Serif" font-size="10.00">VInterpolate</text>
</a>
</g>
</g>
<!-- Node1&#45;&gt;Node3 -->
<g id="edge2_Node000001_Node000003" class="edge">
<title>Node1&#45;&gt;Node3</title>
<g id="a_edge2_Node000001_Node000003"><a xlink:title=" ">
<path fill="none" stroke="#63b8ff" d="M169.37,-50.23C154.9,-40.8 137.02,-29.15 124.64,-21.08"/>
<polygon fill="#63b8ff" stroke="#63b8ff" points="167.18,-52.98 177.46,-55.51 171,-47.12 167.18,-52.98"/>
</a>
</g>
</g>
<!-- Node4 -->
<g id="Node000004" class="node">
<title>Node4</title>
<g id="a_Node000004"><a xlink:href="classVRegion.html" target="_top" xlink:title=" ">
<polygon fill="white" stroke="#666666" points="222,-20.75 165.5,-20.75 165.5,0 222,0 222,-20.75"/>
<text text-anchor="middle" x="193.75" y="-7.25" font-family="Helvetica,sans-Serif" font-size="10.00">VRegion</text>
</a>
</g>
</g>
<!-- Node1&#45;&gt;Node4 -->
<g id="edge3_Node000001_Node000004" class="edge">
<title>Node1&#45;&gt;Node4</title>
<g id="a_edge3_Node000001_Node000004"><a xlink:title=" ">
<path fill="none" stroke="#63b8ff" d="M193.75,-44.88C193.75,-36.66 193.75,-27.68 193.75,-21.08"/>
<polygon fill="#63b8ff" stroke="#63b8ff" points="190.25,-44.82 193.75,-54.82 197.25,-44.82 190.25,-44.82"/>
</a>
</g>
</g>
<!-- Node5 -->
<g id="Node000005" class="node">
<title>Node5</title>
<g id="a_Node000005"><a xlink:href="classVSource.html" target="_top" xlink:title=" ">
<polygon fill="white" stroke="#666666" points="295.62,-20.75 239.88,-20.75 239.88,0 295.62,0 295.62,-20.75"/>
<text text-anchor="middle" x="267.75" y="-7.25" font-family="Helvetica,sans-Serif" font-size="10.00">VSource</text>
</a>
</g>
</g>
<!-- Node1&#45;&gt;Node5 -->
<g id="edge4_Node000001_Node000005" class="edge">
<title>Node1&#45;&gt;Node5</title>
<g id="a_edge4_Node000001_Node000005"><a xlink:title=" ">
<path fill="none" stroke="#63b8ff" d="M215.97,-49.69C228.58,-40.36 243.93,-29 254.63,-21.08"/>
<polygon fill="#63b8ff" stroke="#63b8ff" points="214.15,-46.68 208.2,-55.44 218.32,-52.3 214.15,-46.68"/>
</a>
</g>
</g>
<!-- Node6 -->
<g id="Node000006" class="node">
<title>Node6</title>
<g id="a_Node000006"><a xlink:href="classVTarget.html" target="_top" xlink:title=" ">
<polygon fill="white" stroke="#666666" points="366.12,-20.75 313.38,-20.75 313.38,0 366.12,0 366.12,-20.75"/>
<text text-anchor="middle" x="339.75" y="-7.25" font-family="Helvetica,sans-Serif" font-size="10.00">VTarget</text>
</a>
</g>
</g>
<!-- Node1&#45;&gt;Node6 -->
<g id="edge5_Node000001_Node000006" class="edge">
<title>Node1&#45;&gt;Node6</title>
<g id="a_edge5_Node000001_Node000006"><a xlink:title=" ">
<path fill="none" stroke="#63b8ff" d="M230.44,-52.37C256.44,-42.62 290.69,-29.77 313.87,-21.08"/>
<polygon fill="#63b8ff" stroke="#63b8ff" points="229.4,-49.02 221.27,-55.81 231.86,-55.57 229.4,-49.02"/>
</a>
</g>
</g>
</g>
</svg>
