<?xml version="1.0" encoding="UTF-8" standalone="no"?>
<!DOCTYPE svg PUBLIC "-//W3C//DTD SVG 1.1//EN"
 "http://www.w3.org/Graphics/SVG/1.1/DTD/svg11.dtd">
<!-- Generated by graphviz version 12.2.1 (20241206.2353)
 -->
<!-- Title: Graph Legend Pages: 1 -->
<svg width="540pt" height="168pt"
 viewBox="0.00 0.00 540.00 167.75" xmlns="http://www.w3.org/2000/svg" xmlns:xlink="http://www.w3.org/1999/xlink">
<g id="graph0" class="graph" transform="scale(1 1) rotate(0) translate(4 163.75)">
<title>Graph Legend</title>
<!-- Node9 -->
<g id="Node000009" class="node">
<title>Node9</title>
<g id="a_Node000009"><a xlink:title=" ">
<polygon fill="#999999" stroke="#666666" points="309.38,-20.75 249.88,-20.75 249.88,0 309.38,0 309.38,-20.75"/>
<text text-anchor="middle" x="279.62" y="-7.25" font-family="Helvetica,sans-Serif" font-size="10.00">Inherited</text>
</a>
</g>
</g>
<!-- Node10 -->
<g id="Node000010" class="node">
<title>Node10</title>
<g id="a_Node000010"><a xlink:title=" ">
<polygon fill="white" stroke="#666666" points="69.25,-90.25 0,-90.25 0,-69.5 69.25,-69.5 69.25,-90.25"/>
<text text-anchor="middle" x="34.62" y="-76.75" font-family="Helvetica,sans-Serif" font-size="10.00">PublicBase</text>
</a>
</g>
</g>
<!-- Node10&#45;&gt;Node9 -->
<g id="edge1" class="edge">
<title>Node10&#45;&gt;Node9</title>
<g id="a_edge1"><a xlink:title=" ">
<path fill="none" stroke="#63b8ff" d="M80.76,-66.16C130.26,-52.53 207.42,-31.27 249.6,-19.65"/>
<polygon fill="#63b8ff" stroke="#63b8ff" points="79.9,-62.77 71.19,-68.8 81.76,-69.52 79.9,-62.77"/>
</a>
</g>
</g>
<!-- Node11 -->
<g id="Node000011" class="node">
<title>Node11</title>
<g id="a_Node000011"><a xlink:title=" ">
<polygon fill="#fff0f0" stroke="red" points="66.25,-159.75 3,-159.75 3,-139 66.25,-139 66.25,-159.75"/>
<text text-anchor="middle" x="34.62" y="-146.25" font-family="Helvetica,sans-Serif" font-size="10.00">Truncated</text>
</a>
</g>
</g>
<!-- Node11&#45;&gt;Node10 -->
<g id="edge2" class="edge">
<title>Node11&#45;&gt;Node10</title>
<g id="a_edge2"><a xlink:title=" ">
<path fill="none" stroke="#63b8ff" d="M34.62,-127.57C34.62,-115.22 34.62,-100.15 34.62,-90.53"/>
<polygon fill="#63b8ff" stroke="#63b8ff" points="31.13,-127.19 34.63,-137.19 38.13,-127.19 31.13,-127.19"/>
</a>
</g>
</g>
<!-- Node13 -->
<g id="node4" class="node">
<title>Node13</title>
<g id="a_node4"><a xlink:title=" ">
<polygon fill="white" stroke="#666666" points="173.88,-90.25 87.38,-90.25 87.38,-69.5 173.88,-69.5 173.88,-90.25"/>
<text text-anchor="middle" x="130.62" y="-76.75" font-family="Helvetica,sans-Serif" font-size="10.00">ProtectedBase</text>
</a>
</g>
</g>
<!-- Node13&#45;&gt;Node9 -->
<g id="edge3" class="edge">
<title>Node13&#45;&gt;Node9</title>
<g id="a_edge3"><a xlink:title=" ">
<path fill="none" stroke="darkgreen" d="M162.63,-64.37C191.4,-51.34 232.87,-32.55 257.93,-21.2"/>
<polygon fill="darkgreen" stroke="darkgreen" points="161.33,-61.12 153.67,-68.44 164.22,-67.5 161.33,-61.12"/>
</a>
</g>
</g>
<!-- Node14 -->
<g id="node5" class="node">
<title>Node14</title>
<g id="a_node5"><a xlink:title=" ">
<polygon fill="white" stroke="#666666" points="266.88,-90.25 192.38,-90.25 192.38,-69.5 266.88,-69.5 266.88,-90.25"/>
<text text-anchor="middle" x="229.62" y="-76.75" font-family="Helvetica,sans-Serif" font-size="10.00">PrivateBase</text>
</a>
</g>
</g>
<!-- Node14&#45;&gt;Node9 -->
<g id="edge4" class="edge">
<title>Node14&#45;&gt;Node9</title>
<g id="a_edge4"><a xlink:title=" ">
<path fill="none" stroke="#8b1a1a" d="M243.63,-59.97C253.01,-47.3 264.98,-31.15 272.47,-21.03"/>
<polygon fill="#8b1a1a" stroke="#8b1a1a" points="240.83,-57.87 237.69,-67.99 246.45,-62.04 240.83,-57.87"/>
</a>
</g>
</g>
<!-- Node15 -->
<g id="Node000015" class="node">
<title>Node15</title>
<g id="a_Node000015"><a xlink:title=" ">
<polygon fill="#e0e0e0" stroke="#999999" points="374.75,-90.25 284.5,-90.25 284.5,-69.5 374.75,-69.5 374.75,-90.25"/>
<text text-anchor="middle" x="329.62" y="-76.75" font-family="Helvetica,sans-Serif" font-size="10.00">Undocumented</text>
</a>
</g>
</g>
<!-- Node15&#45;&gt;Node9 -->
<g id="edge5" class="edge">
<title>Node15&#45;&gt;Node9</title>
<g id="a_edge5"><a xlink:title=" ">
<path fill="none" stroke="#63b8ff" d="M315.62,-59.97C306.24,-47.3 294.27,-31.15 286.78,-21.03"/>
<polygon fill="#63b8ff" stroke="#63b8ff" points="312.8,-62.04 321.56,-67.99 318.42,-57.87 312.8,-62.04"/>
</a>
</g>
</g>
<!-- Node16 -->
<g id="node7" class="node">
<title>Node16</title>
<g id="a_node7"><a xlink:title=" ">
<polygon fill="white" stroke="#666666" points="472.88,-90.25 392.38,-90.25 392.38,-69.5 472.88,-69.5 472.88,-90.25"/>
<text text-anchor="middle" x="432.62" y="-76.75" font-family="Helvetica,sans-Serif" font-size="10.00">Templ&lt; int &gt;</text>
</a>
</g>
</g>
<!-- Node16&#45;&gt;Node9 -->
<g id="edge6" class="edge">
<title>Node16&#45;&gt;Node9</title>
<g id="a_edge6"><a xlink:title=" ">
<path fill="none" stroke="#63b8ff" d="M400.15,-64.55C370.59,-51.51 327.75,-32.6 301.9,-21.2"/>
<polygon fill="#63b8ff" stroke="#63b8ff" points="398.43,-67.61 408.99,-68.45 401.26,-61.21 398.43,-67.61"/>
</a>
</g>
</g>
<!-- Node17 -->
<g id="node8" class="node">
<title>Node17</title>
<g id="a_node8"><a xlink:title=" ">
<polygon fill="white" stroke="#666666" points="469.5,-159.75 395.75,-159.75 395.75,-139 469.5,-139 469.5,-159.75"/>
<text text-anchor="middle" x="432.62" y="-146.25" font-family="Helvetica,sans-Serif" font-size="10.00">Templ&lt; T &gt;</text>
</a>
</g>
</g>
<!-- Node17&#45;&gt;Node16 -->
<g id="edge7" class="edge">
<title>Node17&#45;&gt;Node16</title>
<g id="a_edge7"><a xlink:title=" ">
<path fill="none" stroke="orange" stroke-dasharray="5,2" d="M432.62,-127.57C432.62,-115.22 432.62,-100.15 432.62,-90.53"/>
<polygon fill="orange" stroke="orange" points="429.13,-127.19 432.63,-137.19 436.13,-127.19 429.13,-127.19"/>
</a>
</g>
<text text-anchor="middle" x="450.25" y="-111.5" font-family="Helvetica,sans-Serif" font-size="10.00" fill="grey">&lt; int &gt;</text>
</g>
<!-- Node18 -->
<g id="node9" class="node">
<title>Node18</title>
<g id="a_node9"><a xlink:title=" ">
<polygon fill="white" stroke="#666666" points="532,-90.25 491.25,-90.25 491.25,-69.5 532,-69.5 532,-90.25"/>
<text text-anchor="middle" x="511.62" y="-76.75" font-family="Helvetica,sans-Serif" font-size="10.00">Used</text>
</a>
</g>
</g>
<!-- Node18&#45;&gt;Node9 -->
<g id="edge8" class="edge">
<title>Node18&#45;&gt;Node9</title>
<g id="a_edge8"><a xlink:title=" ">
<path fill="none" stroke="#9a32cd" stroke-dasharray="5,2" d="M480.29,-69.15C413.63,-49.21 347.34,-30.39 309.8,-19.83"/>
<polygon fill="#9a32cd" stroke="#9a32cd" points="478.95,-72.4 489.54,-71.92 480.96,-65.7 478.95,-72.4"/>
</a>
</g>
<text text-anchor="middle" x="447.34" y="-42" font-family="Helvetica,sans-Serif" font-size="10.00" fill="grey">m_usedClass</text>
</g>
</g>
</svg>
