<?xml version="1.0" encoding="UTF-8" standalone="no"?>
<!DOCTYPE svg PUBLIC "-//W3C//DTD SVG 1.1//EN"
 "http://www.w3.org/Graphics/SVG/1.1/DTD/svg11.dtd">
<!-- Generated by graphviz version 12.2.1 (20241206.2353)
 -->
<!-- Title: Graphical Class Hierarchy Pages: 1 -->
<svg width="174pt" height="185pt"
 viewBox="0.00 0.00 174.25 184.75" xmlns="http://www.w3.org/2000/svg" xmlns:xlink="http://www.w3.org/1999/xlink">
<g id="graph0" class="graph" transform="scale(1 1) rotate(0) translate(4 180.75)">
<title>Graphical Class Hierarchy</title>
<!-- Node0 -->
<g id="Node000000" class="node">
<title>Node0</title>
<g id="a_Node000000"><a xlink:href="classVObject.html" target="_top" xlink:title=" ">
<polygon fill="white" stroke="#666666" points="54.25,-98.75 0,-98.75 0,-78 54.25,-78 54.25,-98.75"/>
<text text-anchor="middle" x="27.12" y="-85.25" font-family="Helvetica,sans-Serif" font-size="10.00">VObject</text>
</a>
</g>
</g>
<!-- Node1 -->
<g id="Node000001" class="node">
<title>Node1</title>
<g id="a_Node000001"><a xlink:href="classVImage.html" target="_top" xlink:title=" ">
<polygon fill="white" stroke="#666666" points="155,-176.75 101.5,-176.75 101.5,-156 155,-156 155,-176.75"/>
<text text-anchor="middle" x="128.25" y="-163.25" font-family="Helvetica,sans-Serif" font-size="10.00">VImage</text>
</a>
</g>
</g>
<!-- Node0&#45;&gt;Node1 -->
<g id="edge2_Node000000_Node000001" class="edge">
<title>Node0&#45;&gt;Node1</title>
<g id="a_edge2_Node000000_Node000001"><a xlink:title=" ">
<path fill="none" stroke="#63b8ff" d="M45.75,-107.16C57.64,-119.21 74.05,-134.73 90.25,-146.38 94.87,-149.7 100.12,-152.86 105.17,-155.64"/>
<polygon fill="#63b8ff" stroke="#63b8ff" points="48.48,-104.94 39.02,-100.18 43.45,-109.81 48.48,-104.94"/>
</a>
</g>
</g>
<!-- Node2 -->
<g id="Node000002" class="node">
<title>Node2</title>
<g id="a_Node000002"><a xlink:href="classVInterpolate.html" target="_top" xlink:title=" ">
<polygon fill="white" stroke="#666666" points="166.25,-137.75 90.25,-137.75 90.25,-117 166.25,-117 166.25,-137.75"/>
<text text-anchor="middle" x="128.25" y="-124.25" font-family="Helvetica,sans-Serif" font-size="10.00">VInterpolate</text>
</a>
</g>
</g>
<!-- Node0&#45;&gt;Node2 -->
<g id="edge3_Node000000_Node000002" class="edge">
<title>Node0&#45;&gt;Node2</title>
<g id="a_edge3_Node000000_Node000002"><a xlink:title=" ">
<path fill="none" stroke="#63b8ff" d="M65.32,-103.01C76.8,-107.53 89.23,-112.42 99.92,-116.62"/>
<polygon fill="#63b8ff" stroke="#63b8ff" points="66.68,-99.78 56.1,-99.38 64.12,-106.3 66.68,-99.78"/>
</a>
</g>
</g>
<!-- Node3 -->
<g id="Node000003" class="node">
<title>Node3</title>
<g id="a_Node000003"><a xlink:href="classVRegion.html" target="_top" xlink:title=" ">
<polygon fill="white" stroke="#666666" points="156.5,-98.75 100,-98.75 100,-78 156.5,-78 156.5,-98.75"/>
<text text-anchor="middle" x="128.25" y="-85.25" font-family="Helvetica,sans-Serif" font-size="10.00">VRegion</text>
</a>
</g>
</g>
<!-- Node0&#45;&gt;Node3 -->
<g id="edge4_Node000000_Node000003" class="edge">
<title>Node0&#45;&gt;Node3</title>
<g id="a_edge4_Node000000_Node000003"><a xlink:title=" ">
<path fill="none" stroke="#63b8ff" d="M65.94,-88.38C77.12,-88.38 89.16,-88.38 99.57,-88.38"/>
<polygon fill="#63b8ff" stroke="#63b8ff" points="66.2,-84.88 56.2,-88.38 66.2,-91.88 66.2,-84.88"/>
</a>
</g>
</g>
<!-- Node4 -->
<g id="Node000004" class="node">
<title>Node4</title>
<g id="a_Node000004"><a xlink:href="classVSource.html" target="_top" xlink:title=" ">
<polygon fill="white" stroke="#666666" points="156.12,-59.75 100.38,-59.75 100.38,-39 156.12,-39 156.12,-59.75"/>
<text text-anchor="middle" x="128.25" y="-46.25" font-family="Helvetica,sans-Serif" font-size="10.00">VSource</text>
</a>
</g>
</g>
<!-- Node0&#45;&gt;Node4 -->
<g id="edge5_Node000000_Node000004" class="edge">
<title>Node0&#45;&gt;Node4</title>
<g id="a_edge5_Node000000_Node000004"><a xlink:title=" ">
<path fill="none" stroke="#63b8ff" d="M65.32,-73.74C76.8,-69.22 89.23,-64.33 99.92,-60.13"/>
<polygon fill="#63b8ff" stroke="#63b8ff" points="64.12,-70.45 56.1,-77.37 66.68,-76.97 64.12,-70.45"/>
</a>
</g>
</g>
<!-- Node5 -->
<g id="Node000005" class="node">
<title>Node5</title>
<g id="a_Node000005"><a xlink:href="classVTarget.html" target="_top" xlink:title=" ">
<polygon fill="white" stroke="#666666" points="154.62,-20.75 101.88,-20.75 101.88,0 154.62,0 154.62,-20.75"/>
<text text-anchor="middle" x="128.25" y="-7.25" font-family="Helvetica,sans-Serif" font-size="10.00">VTarget</text>
</a>
</g>
</g>
<!-- Node0&#45;&gt;Node5 -->
<g id="edge6_Node000000_Node000005" class="edge">
<title>Node0&#45;&gt;Node5</title>
<g id="a_edge6_Node000000_Node000005"><a xlink:title=" ">
<path fill="none" stroke="#63b8ff" d="M45.75,-69.59C57.64,-57.54 74.05,-42.02 90.25,-30.38 94.87,-27.05 100.12,-23.89 105.17,-21.11"/>
<polygon fill="#63b8ff" stroke="#63b8ff" points="43.45,-66.94 39.02,-76.57 48.48,-71.81 43.45,-66.94"/>
</a>
</g>
</g>
</g>
</svg>
